<mxfile host="Electron" modified="2024-06-22T21:40:53.216Z" agent="Mozilla/5.0 (Macintosh; Intel Mac OS X 10_15_7) AppleWebKit/537.36 (KHTML, like Gecko) draw.io/24.6.1 Chrome/124.0.6367.207 Electron/30.0.6 Safari/537.36" etag="Te_pmxbyz9aifD6OvmNL" version="24.6.1" type="device">
  <diagram id="C5RBs43oDa-KdzZeNtuy" name="Page-1">
    <mxGraphModel dx="2061" dy="2297" grid="1" gridSize="10" guides="1" tooltips="1" connect="1" arrows="1" fold="1" page="1" pageScale="1" pageWidth="827" pageHeight="1169" background="none" math="0" shadow="0">
      <root>
        <mxCell id="WIyWlLk6GJQsqaUBKTNV-0" />
        <mxCell id="WIyWlLk6GJQsqaUBKTNV-1" parent="WIyWlLk6GJQsqaUBKTNV-0" />
        <mxCell id="ShSTj1aoVv6OaLJEiY5O-1" value="Notes REST UML action diagram" style="swimlane;whiteSpace=wrap;html=1;" parent="WIyWlLk6GJQsqaUBKTNV-1" vertex="1">
          <mxGeometry x="-140" y="-30" width="1010" height="920" as="geometry" />
        </mxCell>
        <mxCell id="WIyWlLk6GJQsqaUBKTNV-2" value="" style="rounded=0;html=1;jettySize=auto;orthogonalLoop=1;fontSize=11;endArrow=block;endFill=0;endSize=8;strokeWidth=1;shadow=0;labelBackgroundColor=none;edgeStyle=orthogonalEdgeStyle;" parent="ShSTj1aoVv6OaLJEiY5O-1" source="WIyWlLk6GJQsqaUBKTNV-3" target="WIyWlLk6GJQsqaUBKTNV-6" edge="1">
          <mxGeometry relative="1" as="geometry" />
        </mxCell>
        <mxCell id="WIyWlLk6GJQsqaUBKTNV-3" value="Server receives client Http request." style="rounded=1;whiteSpace=wrap;html=1;fontSize=12;glass=0;strokeWidth=1;shadow=0;" parent="ShSTj1aoVv6OaLJEiY5O-1" vertex="1">
          <mxGeometry x="415" y="200" width="120" height="40" as="geometry" />
        </mxCell>
        <mxCell id="ShSTj1aoVv6OaLJEiY5O-11" style="edgeStyle=orthogonalEdgeStyle;rounded=0;orthogonalLoop=1;jettySize=auto;html=1;fillColor=#1ba1e2;strokeColor=#006EAF;" parent="ShSTj1aoVv6OaLJEiY5O-1" source="WIyWlLk6GJQsqaUBKTNV-6" target="ShSTj1aoVv6OaLJEiY5O-6" edge="1">
          <mxGeometry relative="1" as="geometry" />
        </mxCell>
        <mxCell id="ShSTj1aoVv6OaLJEiY5O-12" style="edgeStyle=orthogonalEdgeStyle;rounded=0;orthogonalLoop=1;jettySize=auto;html=1;entryX=0.5;entryY=0;entryDx=0;entryDy=0;fillColor=#1ba1e2;strokeColor=#006EAF;" parent="ShSTj1aoVv6OaLJEiY5O-1" source="WIyWlLk6GJQsqaUBKTNV-6" target="ShSTj1aoVv6OaLJEiY5O-9" edge="1">
          <mxGeometry relative="1" as="geometry">
            <mxPoint x="670" y="410" as="targetPoint" />
          </mxGeometry>
        </mxCell>
        <mxCell id="ShSTj1aoVv6OaLJEiY5O-67" style="edgeStyle=orthogonalEdgeStyle;rounded=0;orthogonalLoop=1;jettySize=auto;html=1;fillColor=#60a917;strokeColor=#2D7600;" parent="ShSTj1aoVv6OaLJEiY5O-1" source="WIyWlLk6GJQsqaUBKTNV-6" target="ShSTj1aoVv6OaLJEiY5O-60" edge="1">
          <mxGeometry relative="1" as="geometry">
            <Array as="points">
              <mxPoint x="590" y="360" />
              <mxPoint x="590" y="360" />
            </Array>
          </mxGeometry>
        </mxCell>
        <mxCell id="ShSTj1aoVv6OaLJEiY5O-68" style="edgeStyle=orthogonalEdgeStyle;rounded=0;orthogonalLoop=1;jettySize=auto;html=1;entryX=1;entryY=0.5;entryDx=0;entryDy=0;exitX=0.309;exitY=0.178;exitDx=0;exitDy=0;exitPerimeter=0;fillColor=#a20025;strokeColor=#6F0000;" parent="ShSTj1aoVv6OaLJEiY5O-1" source="WIyWlLk6GJQsqaUBKTNV-6" target="ShSTj1aoVv6OaLJEiY5O-61" edge="1">
          <mxGeometry relative="1" as="geometry">
            <Array as="points">
              <mxPoint x="454" y="360" />
            </Array>
          </mxGeometry>
        </mxCell>
        <mxCell id="WIyWlLk6GJQsqaUBKTNV-6" value="Router handler" style="rhombus;whiteSpace=wrap;html=1;shadow=0;fontFamily=Helvetica;fontSize=12;align=center;strokeWidth=1;spacing=6;spacingTop=-4;" parent="ShSTj1aoVv6OaLJEiY5O-1" vertex="1">
          <mxGeometry x="420" y="340" width="110" height="90" as="geometry" />
        </mxCell>
        <mxCell id="ShSTj1aoVv6OaLJEiY5O-4" value="/Subject/note/{id}" style="rounded=1;whiteSpace=wrap;html=1;fontSize=12;glass=0;strokeWidth=1;shadow=0;" parent="ShSTj1aoVv6OaLJEiY5O-1" vertex="1">
          <mxGeometry x="260" y="510" width="120" height="40" as="geometry" />
        </mxCell>
        <mxCell id="ShSTj1aoVv6OaLJEiY5O-45" style="edgeStyle=orthogonalEdgeStyle;rounded=0;orthogonalLoop=1;jettySize=auto;html=1;entryX=0.5;entryY=0;entryDx=0;entryDy=0;fillColor=#1ba1e2;strokeColor=#006EAF;" parent="ShSTj1aoVv6OaLJEiY5O-1" source="ShSTj1aoVv6OaLJEiY5O-6" target="ShSTj1aoVv6OaLJEiY5O-39" edge="1">
          <mxGeometry relative="1" as="geometry" />
        </mxCell>
        <mxCell id="ShSTj1aoVv6OaLJEiY5O-47" value="Call" style="edgeLabel;html=1;align=center;verticalAlign=middle;resizable=0;points=[];" parent="ShSTj1aoVv6OaLJEiY5O-45" vertex="1" connectable="0">
          <mxGeometry x="-0.0444" y="1" relative="1" as="geometry">
            <mxPoint as="offset" />
          </mxGeometry>
        </mxCell>
        <mxCell id="ShSTj1aoVv6OaLJEiY5O-6" value="/Subject/notes" style="rounded=1;whiteSpace=wrap;html=1;fontSize=12;glass=0;strokeWidth=1;shadow=0;" parent="ShSTj1aoVv6OaLJEiY5O-1" vertex="1">
          <mxGeometry x="415" y="510" width="120" height="40" as="geometry" />
        </mxCell>
        <mxCell id="ShSTj1aoVv6OaLJEiY5O-46" value="Call" style="edgeStyle=orthogonalEdgeStyle;rounded=0;orthogonalLoop=1;jettySize=auto;html=1;entryX=1;entryY=0.5;entryDx=0;entryDy=0;fillColor=#1ba1e2;strokeColor=#006EAF;" parent="ShSTj1aoVv6OaLJEiY5O-1" source="ShSTj1aoVv6OaLJEiY5O-9" target="ShSTj1aoVv6OaLJEiY5O-39" edge="1">
          <mxGeometry relative="1" as="geometry" />
        </mxCell>
        <mxCell id="ShSTj1aoVv6OaLJEiY5O-66" style="edgeStyle=orthogonalEdgeStyle;rounded=0;orthogonalLoop=1;jettySize=auto;html=1;fillColor=#e3c800;strokeColor=#B09500;" parent="ShSTj1aoVv6OaLJEiY5O-1" source="ShSTj1aoVv6OaLJEiY5O-9" target="WIyWlLk6GJQsqaUBKTNV-6" edge="1">
          <mxGeometry relative="1" as="geometry">
            <Array as="points">
              <mxPoint x="610" y="400" />
            </Array>
          </mxGeometry>
        </mxCell>
        <mxCell id="ShSTj1aoVv6OaLJEiY5O-9" value="/allNotes" style="rounded=1;whiteSpace=wrap;html=1;fontSize=12;glass=0;strokeWidth=1;shadow=0;" parent="ShSTj1aoVv6OaLJEiY5O-1" vertex="1">
          <mxGeometry x="590" y="510" width="120" height="40" as="geometry" />
        </mxCell>
        <mxCell id="ShSTj1aoVv6OaLJEiY5O-10" style="edgeStyle=orthogonalEdgeStyle;rounded=0;orthogonalLoop=1;jettySize=auto;html=1;entryX=0.4;entryY=0.05;entryDx=0;entryDy=0;entryPerimeter=0;fillColor=#1ba1e2;strokeColor=#006EAF;" parent="ShSTj1aoVv6OaLJEiY5O-1" source="WIyWlLk6GJQsqaUBKTNV-6" target="ShSTj1aoVv6OaLJEiY5O-4" edge="1">
          <mxGeometry relative="1" as="geometry" />
        </mxCell>
        <mxCell id="ShSTj1aoVv6OaLJEiY5O-55" style="edgeStyle=orthogonalEdgeStyle;rounded=0;orthogonalLoop=1;jettySize=auto;html=1;entryX=1;entryY=1;entryDx=0;entryDy=0;fillColor=#e3c800;strokeColor=#B09500;" parent="ShSTj1aoVv6OaLJEiY5O-1" source="ShSTj1aoVv6OaLJEiY5O-14" target="ShSTj1aoVv6OaLJEiY5O-39" edge="1">
          <mxGeometry relative="1" as="geometry">
            <Array as="points">
              <mxPoint x="510" y="780" />
              <mxPoint x="510" y="780" />
            </Array>
          </mxGeometry>
        </mxCell>
        <mxCell id="ShSTj1aoVv6OaLJEiY5O-56" value="Result" style="edgeLabel;html=1;align=center;verticalAlign=middle;resizable=0;points=[];" parent="ShSTj1aoVv6OaLJEiY5O-55" vertex="1" connectable="0">
          <mxGeometry x="-0.1677" y="-3" relative="1" as="geometry">
            <mxPoint as="offset" />
          </mxGeometry>
        </mxCell>
        <mxCell id="ShSTj1aoVv6OaLJEiY5O-14" value="MongoDB" style="rhombus;whiteSpace=wrap;html=1;shadow=0;fontFamily=Helvetica;fontSize=12;align=center;strokeWidth=1;spacing=6;spacingTop=-4;" parent="ShSTj1aoVv6OaLJEiY5O-1" vertex="1">
          <mxGeometry x="420" y="770" width="110" height="90" as="geometry" />
        </mxCell>
        <mxCell id="ShSTj1aoVv6OaLJEiY5O-49" value="QUERY" style="edgeStyle=orthogonalEdgeStyle;rounded=0;orthogonalLoop=1;jettySize=auto;html=1;entryX=0;entryY=0;entryDx=0;entryDy=0;fillColor=#1ba1e2;strokeColor=#006EAF;" parent="ShSTj1aoVv6OaLJEiY5O-1" edge="1">
          <mxGeometry relative="1" as="geometry">
            <mxPoint x="442.5" y="680.0005080756888" as="sourcePoint" />
            <mxPoint x="440" y="795.18" as="targetPoint" />
            <Array as="points">
              <mxPoint x="442.5" y="772.68" />
              <mxPoint x="440.5" y="772.68" />
            </Array>
          </mxGeometry>
        </mxCell>
        <mxCell id="ShSTj1aoVv6OaLJEiY5O-58" style="edgeStyle=orthogonalEdgeStyle;rounded=0;orthogonalLoop=1;jettySize=auto;html=1;entryX=0.75;entryY=1;entryDx=0;entryDy=0;fillColor=#e3c800;strokeColor=#B09500;" parent="ShSTj1aoVv6OaLJEiY5O-1" source="ShSTj1aoVv6OaLJEiY5O-39" target="ShSTj1aoVv6OaLJEiY5O-6" edge="1">
          <mxGeometry relative="1" as="geometry">
            <Array as="points">
              <mxPoint x="505" y="620" />
              <mxPoint x="505" y="620" />
            </Array>
          </mxGeometry>
        </mxCell>
        <mxCell id="ShSTj1aoVv6OaLJEiY5O-59" style="edgeStyle=orthogonalEdgeStyle;rounded=0;orthogonalLoop=1;jettySize=auto;html=1;fillColor=#e3c800;strokeColor=#B09500;" parent="ShSTj1aoVv6OaLJEiY5O-1" source="ShSTj1aoVv6OaLJEiY5O-39" target="ShSTj1aoVv6OaLJEiY5O-9" edge="1">
          <mxGeometry relative="1" as="geometry" />
        </mxCell>
        <mxCell id="ShSTj1aoVv6OaLJEiY5O-39" value="Business Logic" style="ellipse;whiteSpace=wrap;html=1;align=center;" parent="ShSTj1aoVv6OaLJEiY5O-1" vertex="1">
          <mxGeometry x="425" y="640" width="100" height="40" as="geometry" />
        </mxCell>
        <mxCell id="ShSTj1aoVv6OaLJEiY5O-44" style="edgeStyle=orthogonalEdgeStyle;rounded=0;orthogonalLoop=1;jettySize=auto;html=1;entryX=0.01;entryY=0.725;entryDx=0;entryDy=0;entryPerimeter=0;fillColor=#1ba1e2;strokeColor=#006EAF;" parent="ShSTj1aoVv6OaLJEiY5O-1" source="ShSTj1aoVv6OaLJEiY5O-4" target="ShSTj1aoVv6OaLJEiY5O-39" edge="1">
          <mxGeometry relative="1" as="geometry" />
        </mxCell>
        <mxCell id="ShSTj1aoVv6OaLJEiY5O-48" value="Call" style="edgeLabel;html=1;align=center;verticalAlign=middle;resizable=0;points=[];" parent="ShSTj1aoVv6OaLJEiY5O-44" vertex="1" connectable="0">
          <mxGeometry x="0.1189" y="-3" relative="1" as="geometry">
            <mxPoint y="1" as="offset" />
          </mxGeometry>
        </mxCell>
        <mxCell id="ShSTj1aoVv6OaLJEiY5O-54" value="CALL" style="edgeStyle=orthogonalEdgeStyle;rounded=0;orthogonalLoop=1;jettySize=auto;html=1;entryX=0.5;entryY=0;entryDx=0;entryDy=0;" parent="ShSTj1aoVv6OaLJEiY5O-1" source="ShSTj1aoVv6OaLJEiY5O-53" target="WIyWlLk6GJQsqaUBKTNV-3" edge="1">
          <mxGeometry relative="1" as="geometry" />
        </mxCell>
        <mxCell id="ShSTj1aoVv6OaLJEiY5O-53" value="Client" style="rounded=1;arcSize=10;whiteSpace=wrap;html=1;align=center;" parent="ShSTj1aoVv6OaLJEiY5O-1" vertex="1">
          <mxGeometry x="425" y="40" width="100" height="40" as="geometry" />
        </mxCell>
        <mxCell id="ShSTj1aoVv6OaLJEiY5O-57" style="edgeStyle=orthogonalEdgeStyle;rounded=0;orthogonalLoop=1;jettySize=auto;html=1;entryX=0.417;entryY=1.125;entryDx=0;entryDy=0;entryPerimeter=0;fillColor=#e3c800;strokeColor=#B09500;" parent="ShSTj1aoVv6OaLJEiY5O-1" source="ShSTj1aoVv6OaLJEiY5O-39" target="ShSTj1aoVv6OaLJEiY5O-4" edge="1">
          <mxGeometry relative="1" as="geometry" />
        </mxCell>
        <mxCell id="ShSTj1aoVv6OaLJEiY5O-70" style="edgeStyle=orthogonalEdgeStyle;rounded=0;orthogonalLoop=1;jettySize=auto;html=1;entryX=1;entryY=0.5;entryDx=0;entryDy=0;fillColor=#60a917;strokeColor=#2D7600;" parent="ShSTj1aoVv6OaLJEiY5O-1" source="ShSTj1aoVv6OaLJEiY5O-60" target="ShSTj1aoVv6OaLJEiY5O-53" edge="1">
          <mxGeometry relative="1" as="geometry">
            <Array as="points">
              <mxPoint x="800" y="60" />
            </Array>
          </mxGeometry>
        </mxCell>
        <mxCell id="ShSTj1aoVv6OaLJEiY5O-60" value="SUCCESS" style="ellipse;whiteSpace=wrap;html=1;align=center;fillColor=#60a917;fontColor=#ffffff;strokeColor=#2D7600;" parent="ShSTj1aoVv6OaLJEiY5O-1" vertex="1">
          <mxGeometry x="750" y="340" width="100" height="40" as="geometry" />
        </mxCell>
        <mxCell id="ShSTj1aoVv6OaLJEiY5O-69" style="edgeStyle=orthogonalEdgeStyle;rounded=0;orthogonalLoop=1;jettySize=auto;html=1;entryX=0;entryY=0.5;entryDx=0;entryDy=0;fillColor=#a20025;strokeColor=#6F0000;" parent="ShSTj1aoVv6OaLJEiY5O-1" source="ShSTj1aoVv6OaLJEiY5O-61" target="ShSTj1aoVv6OaLJEiY5O-53" edge="1">
          <mxGeometry relative="1" as="geometry">
            <Array as="points">
              <mxPoint x="140" y="60" />
            </Array>
          </mxGeometry>
        </mxCell>
        <mxCell id="ShSTj1aoVv6OaLJEiY5O-61" value="FAILURE" style="ellipse;whiteSpace=wrap;html=1;align=center;fillColor=#a20025;fontColor=#ffffff;strokeColor=#6F0000;" parent="ShSTj1aoVv6OaLJEiY5O-1" vertex="1">
          <mxGeometry x="90" y="340" width="100" height="40" as="geometry" />
        </mxCell>
        <mxCell id="ShSTj1aoVv6OaLJEiY5O-64" style="edgeStyle=orthogonalEdgeStyle;rounded=0;orthogonalLoop=1;jettySize=auto;html=1;entryX=0.055;entryY=0.6;entryDx=0;entryDy=0;entryPerimeter=0;fillColor=#e3c800;strokeColor=#B09500;" parent="ShSTj1aoVv6OaLJEiY5O-1" source="ShSTj1aoVv6OaLJEiY5O-4" target="WIyWlLk6GJQsqaUBKTNV-6" edge="1">
          <mxGeometry relative="1" as="geometry">
            <Array as="points">
              <mxPoint x="350" y="394" />
            </Array>
          </mxGeometry>
        </mxCell>
        <mxCell id="ShSTj1aoVv6OaLJEiY5O-65" style="edgeStyle=orthogonalEdgeStyle;rounded=0;orthogonalLoop=1;jettySize=auto;html=1;entryX=1;entryY=1;entryDx=0;entryDy=0;fillColor=#e3c800;strokeColor=#B09500;" parent="ShSTj1aoVv6OaLJEiY5O-1" source="ShSTj1aoVv6OaLJEiY5O-6" target="WIyWlLk6GJQsqaUBKTNV-6" edge="1">
          <mxGeometry relative="1" as="geometry">
            <Array as="points">
              <mxPoint x="500" y="423" />
              <mxPoint x="503" y="423" />
            </Array>
          </mxGeometry>
        </mxCell>
        <mxCell id="ShSTj1aoVv6OaLJEiY5O-3" value="" style="rhombus;whiteSpace=wrap;html=1;shadow=0;fontFamily=Helvetica;fontSize=12;align=center;strokeWidth=1;spacing=6;spacingTop=-4;" parent="WIyWlLk6GJQsqaUBKTNV-1" vertex="1">
          <mxGeometry x="1150" y="390" width="110" height="90" as="geometry" />
        </mxCell>
      </root>
    </mxGraphModel>
  </diagram>
</mxfile>
